<?xml version="1.0" encoding="UTF-8"?>
<!DOCTYPE svg PUBLIC "-//W3C//DTD SVG 1.1//EN" "http://www.w3.org/Graphics/SVG/1.1/DTD/svg11.dtd">
<!-- Creator: CorelDRAW -->
<svg xmlns="http://www.w3.org/2000/svg" xml:space="preserve" width="10.3073in" height="12.9162in" version="1.1" style="shape-rendering:geometricPrecision; text-rendering:geometricPrecision; image-rendering:optimizeQuality; fill-rule:evenodd; clip-rule:evenodd"
viewBox="0 0 12911.47 16179.59"
 xmlns:xlink="http://www.w3.org/1999/xlink"
 xmlns:xodm="http://www.corel.com/coreldraw/odm/2003">
 <defs>
  <style type="text/css">
   <![CDATA[
    .fil0 {fill:white}
   ]]>
  </style>
 </defs>
 <g id="Layer_x0020_1">
  <metadata id="CorelCorpID_0Corel-Layer"/>
  <path class="fil0" d="M5241.41 13432.28l-373.89 -4.31 -1656.89 5.27c-447.13,-4796.17 -2509.52,-4318.83 -2703.58,-7767.85 -165.22,-2935.93 2490.71,-5102.56 5378.08,-5166.26l27.75 -490.81c-3116.51,-38.81 -5865.87,2320.84 -5912.21,5317.96 -25.44,1647.14 688.92,3093.22 1394.97,4171.87 388.77,593.93 706.13,1046.5 954.12,1841.29 288.41,924.39 209.59,1666.12 406.64,2469.03 662.07,344.47 4822.77,146.15 5941.13,141.74l24.05 423.96c-104.89,52.13 13.54,27.8 -208.89,66.63 -118.54,20.67 -200.24,21.1 -320.68,22.38l-4485.65 -7.76c-610.36,0.02 -1980.26,-244.97 -2164.13,367.02 -92.46,307.77 -94.4,895.2 90.01,1124.73 209.2,260.4 698.07,189.03 1058.94,187.76 2458.68,-8.58 8200.33,115.12 10202.29,-15.89l18.02 -471.09 -10871.71 -19.86 -1.48 -629.51c1843.6,-190.16 4475.18,9.39 6408.09,-15.26 609.65,-7.76 810.03,-182.66 808.98,-777.62 -1.12,-640.48 -161.52,-774.1 -809.29,-779.75 -1064.59,-9.3 -2138.83,5.65 -3204.65,6.32z"/>
  <path class="fil0" d="M5885.12 499.12c1571.38,139.94 2593.35,435.95 3609.86,1324.25 853.09,745.51 1661.92,1833.87 1733.63,3247.68 176.59,3482.47 -2428.56,4492.08 -2650.11,7273.86 -621.31,172.12 -1525.55,208.3 -2228,69.19 -27.77,-360.4 -70.2,-1509.11 47.72,-1783.37 42.33,-98.47 733.03,-929.42 817.84,-1036.05 900.64,-1132.41 599.63,-543.93 1008.31,-840.97 481.01,-349.6 -42.36,-1122.76 -633.68,-635.14 -222.33,353 -6.49,261.8 -136.11,623.42 -24.42,68.09 -894.92,1229.45 -1085.51,1275.38 -90.73,-858.6 -124.77,-1287.6 268.38,-1841.68 292.86,-412.73 548.21,-915.83 873.14,-1290.9 323.34,-26.29 767.99,-84.84 1034.3,37.25 382.98,175.56 213.02,343.2 832.36,104.17 117.01,-364.12 120.44,-847.86 -419.32,-787.37 -574.04,64.35 18.02,337.21 -1181.27,271.68 123.31,-304.32 348.64,-489.73 507.7,-841.25 263.06,-581.42 -142.53,-565.3 -98.73,-1088.12 29.54,-352.6 198.55,-809 -343.3,-832.63 -391.5,-17.06 -663.34,447.69 -378.43,775.67 494.96,569.81 934.66,362.73 46.17,1732 -220.85,340.33 -885.88,1487.4 -1153.55,1587.84 -59.3,-1593.18 56.71,-891.01 260.52,-1389.94 86.82,-212.56 30.55,-942.52 -817.99,-465.78 -92.74,396.15 -66.05,332.57 86.13,629.86 262.11,512.14 130.4,2045.3 129.81,2683.92 -1.01,1073.98 -90.9,2672.46 15.17,3677.63 580.51,93.44 2493.95,162.82 2835.18,-127.86 336.62,-286.76 174.3,-977.34 817.1,-2224.01 675.89,-1310.88 1650.59,-2192.33 2005.18,-4172.97 629.65,-3517.02 -2418.36,-6637.28 -5774.78,-6446.6l-27.75 490.81z"/>
  <path class="fil0" d="M4867.52 13427.97l373.89 4.31 -21.34 -8101.88c74.51,-446.77 327.27,-364.48 125.64,-962.33 -319.2,-117.75 -336.21,-108.92 -679.05,-22.4 -210.88,468.5 -97.03,569.78 204.75,898.58l15.45 1783.84c-313.13,-186.9 -983.39,-1364.4 -1222.12,-1747.26 -376.63,-604.07 -893.57,-895.33 202.57,-1800.16 31.41,-419.85 -76,-811.26 -550.11,-666.84 -486.16,148.11 -202.5,599.58 -237.79,978.15 -38.96,417.74 -392.87,527.73 -144.92,1035.63 166.46,340.95 376.89,418.36 496.85,813.17 -1217.83,151.32 -690.03,-525.55 -1527.49,-171.14 -167.76,426.39 -89.29,991.47 560.53,738.16 354.56,-138.22 63.11,-284.49 1305.61,-167.23 952.58,1544.45 1253.07,1532.23 1094.06,3162.38 -216.41,-147.8 -1258.03,-1424.32 -1384.08,-1854.74 -347.56,-1186.87 -1480.58,198.83 -511.56,477.37 676.01,194.33 365.12,84.41 1272.36,1198.71 242.12,297.4 616.57,625.77 646.42,1032.92 57.14,779.46 53.64,2601.11 -19.67,3370.75z"/>
 </g>
</svg>
